<svg width="103" height="103" viewBox="0 0 103 103" fill="none" xmlns="http://www.w3.org/2000/svg">
<path fill-rule="evenodd" clip-rule="evenodd" d="M51.5 0C23.0462 0 0 23.0462 0 51.5C0 74.2887 14.7419 93.5369 35.2131 100.361C37.7881 100.811 38.7537 99.2663 38.7537 97.9144C38.7537 96.6913 38.6894 92.6356 38.6894 88.3225C25.75 90.7044 22.4025 85.1681 21.3725 82.2712C20.7931 80.7906 18.2825 76.22 16.0938 74.9969C14.2912 74.0312 11.7162 71.6494 16.0294 71.585C20.085 71.5206 22.9819 75.3187 23.9475 76.8637C28.5825 84.6531 35.9856 82.4644 38.9469 81.1125C39.3975 77.765 40.7494 75.5119 42.23 74.2244C30.7712 72.9369 18.7975 68.495 18.7975 48.7962C18.7975 43.1956 20.7931 38.5606 24.0763 34.9556C23.5613 33.6681 21.7587 28.3894 24.5912 21.3081C24.5912 21.3081 28.9044 19.9563 38.7537 26.5869C42.8737 25.4281 47.2513 24.8487 51.6288 24.8487C56.0063 24.8487 60.3838 25.4281 64.5038 26.5869C74.3531 19.8919 78.6663 21.3081 78.6663 21.3081C81.4988 28.3894 79.6963 33.6681 79.1813 34.9556C82.4644 38.5606 84.46 43.1312 84.46 48.7962C84.46 68.5594 72.4219 72.9369 60.9631 74.2244C62.83 75.8337 64.4394 78.9238 64.4394 83.7519C64.4394 90.64 64.375 96.1763 64.375 97.9144C64.375 99.2663 65.3406 100.876 67.9156 100.361C78.1393 96.9092 87.0232 90.3386 93.317 81.5736C99.6107 72.8086 102.997 62.2906 103 51.5C103 23.0462 79.9538 0 51.5 0Z" fill="white"/>
</svg>
