<?xml version='1.0' encoding='UTF-8' standalone='no'?>
<!-- Created with Fritzing (https://fritzing.org/) -->
<svg xmlns="http://www.w3.org/2000/svg" baseProfile="tiny" width="2.91669in" viewBox="0 0 210.002 148.986" y="0in" height="2.06925in" x="0in" xmlns:svg="http://www.w3.org/2000/svg"  version="1.2">
 <g id="watermark" >
  <g >
   <g >
    <path fill="#8C8C8C" d="M185.27,142.786c-0.604,0,-1.131,0.325,-1.422,0.809l-2.796,0l3.96,-4.071c0.146,-0.146,0.289,-0.322,0.428,-0.521c0.149,-0.222,0.228,-0.479,0.228,-0.768c0,-0.279,-0.097,-0.518,-0.287,-0.71c-0.19,-0.188,-0.444,-0.287,-0.754,-0.287l-4.636,0c-0.305,0,-0.555,0.06,-0.742,0.17c-0.219,0.13,-0.33,0.368,-0.33,0.707c0,0.329,0.111,0.562,0.33,0.692c0.188,0.111,0.438,0.168,0.742,0.168l3.148,0l-3.974,4.086c-0.146,0.147,-0.289,0.315,-0.425,0.504c-0.153,0.212,-0.23,0.472,-0.23,0.771c0,0.28,0.096,0.521,0.288,0.711c0.188,0.188,0.442,0.285,0.754,0.285l4.315,0c0.293,0.467,0.812,0.776,1.4,0.776c0.916,0,1.66,-0.744,1.66,-1.661C186.929,143.531,186.184,142.786,185.27,142.786zM185.27,145.049c-0.334,0,-0.604,-0.271,-0.604,-0.604c0,-0.333,0.27,-0.604,0.604,-0.604c0.332,0,0.604,0.271,0.604,0.604C185.873,144.78,185.602,145.049,185.27,145.049z" />
    <path fill="#8C8C8C" d="M168.327,132.744c-0.914,0,-1.659,0.745,-1.659,1.66c0,0.916,0.745,1.66,1.659,1.66s1.658,-0.744,1.658,-1.66C169.987,133.489,169.243,132.744,168.327,132.744zM168.328,135.007c-0.333,0,-0.604,-0.27,-0.604,-0.603s0.271,-0.603,0.604,-0.603c0.331,0,0.604,0.27,0.604,0.603S168.659,135.007,168.328,135.007z" />
    <path fill="#8C8C8C" d="M176.848,137.406c-0.193,-0.111,-0.439,-0.169,-0.732,-0.169l-1.465,0L174.651,134.715c0,-0.292,-0.057,-0.538,-0.166,-0.729C174.395,133.829,174.202,133.644,173.792,133.644c-0.34,0,-0.578,0.116,-0.709,0.342c-0.109,0.193,-0.167,0.438,-0.167,0.729l0,2.521l-0.481,0c-0.295,0,-0.539,0.06,-0.731,0.169c-0.228,0.129,-0.341,0.368,-0.341,0.708c0,0.412,0.185,0.603,0.341,0.692c0.192,0.111,0.438,0.168,0.731,0.168l0.481,0l0,4.362c0,0.277,0.026,0.533,0.081,0.768c0.056,0.246,0.154,0.464,0.298,0.645c0.146,0.186,0.345,0.332,0.595,0.436c0.241,0.098,0.555,0.146,0.93,0.146l0.896,0c0.292,0,0.539,-0.054,0.731,-0.166c0.154,-0.089,0.341,-0.281,0.341,-0.693c0,-0.338,-0.114,-0.578,-0.341,-0.709c-0.192,-0.109,-0.439,-0.168,-0.731,-0.168l-0.821,0c-0.138,0,-0.19,-0.019,-0.207,-0.024c-0.014,-0.034,-0.035,-0.103,-0.035,-0.231L174.653,138.974l1.465,0c0.295,0,0.541,-0.057,0.734,-0.168c0.152,-0.09,0.34,-0.28,0.34,-0.692C177.188,137.774,177.075,137.535,176.848,137.406z" />
    <path fill="#8C8C8C" d="M168.393,137.236l-1.191,0c-0.292,0,-0.538,0.059,-0.731,0.169c-0.226,0.129,-0.341,0.368,-0.341,0.708c0,0.412,0.188,0.604,0.341,0.691c0.193,0.113,0.439,0.168,0.731,0.168l0.544,0l0,5.362c0,0.293,0.057,0.539,0.167,0.73c0.131,0.227,0.367,0.341,0.708,0.341c0.411,0,0.604,-0.187,0.692,-0.341c0.111,-0.191,0.168,-0.438,0.168,-0.73L169.481,138.324c0,-0.386,-0.084,-0.656,-0.256,-0.83C169.05,137.322,168.78,137.236,168.393,137.236z" />
    <path fill="#8C8C8C" d="M164.558,137.406c-0.193,-0.111,-0.44,-0.169,-0.732,-0.169l-0.604,0c-0.25,0,-0.498,0.063,-0.734,0.187c-0.226,0.119,-0.433,0.271,-0.616,0.453l-0.644,0.604l0,-0.247c0,-0.291,-0.055,-0.538,-0.168,-0.729c-0.128,-0.228,-0.368,-0.34,-0.707,-0.34c-0.41,0,-0.604,0.184,-0.693,0.34c-0.11,0.191,-0.167,0.438,-0.167,0.729l0,4.801c-0.475,0.293,-0.791,0.816,-0.791,1.412c0,0.917,0.745,1.661,1.658,1.661c0.916,0,1.66,-0.744,1.66,-1.661c0,-0.596,-0.317,-1.119,-0.792,-1.412l0,-2.21l1.738,-1.564c0.1,-0.09,0.199,-0.164,0.297,-0.217c0.084,-0.045,0.174,-0.067,0.274,-0.067l0.288,0c0.292,0,0.539,-0.056,0.732,-0.169c0.155,-0.088,0.339,-0.279,0.339,-0.691C164.898,137.774,164.783,137.535,164.558,137.406zM160.359,145.049c-0.332,0,-0.603,-0.271,-0.603,-0.604c0,-0.333,0.271,-0.604,0.603,-0.604c0.333,0,0.604,0.271,0.604,0.604C160.963,144.78,160.692,145.049,160.359,145.049z" />
    <path fill="#8C8C8C" d="M157.842,133.887c-0.193,-0.111,-0.44,-0.167,-0.731,-0.167l-0.59,0c-0.2,0,-0.389,0.004,-0.562,0.016c-0.176,0.009,-0.345,0.035,-0.506,0.07c-0.168,0.041,-0.336,0.109,-0.496,0.202c-0.158,0.093,-0.319,0.222,-0.48,0.382c-0.334,0.314,-0.554,0.656,-0.652,1.017c-0.094,0.348,-0.143,0.735,-0.143,1.151l0,0.678l-0.483,0c-0.292,0,-0.539,0.059,-0.73,0.169c-0.227,0.13,-0.342,0.369,-0.342,0.708c0,0.412,0.185,0.604,0.341,0.693c0.191,0.111,0.438,0.166,0.73,0.166l0.483,0l0,5.362c0,0.293,0.057,0.539,0.167,0.73c0.13,0.227,0.367,0.341,0.708,0.341c0.411,0,0.603,-0.187,0.692,-0.341c0.111,-0.191,0.168,-0.438,0.168,-0.73l0,-5.36l0.92,0c0.293,0,0.54,-0.057,0.732,-0.168c0.155,-0.09,0.34,-0.28,0.34,-0.692c0,-0.34,-0.114,-0.579,-0.34,-0.708c-0.189,-0.111,-0.436,-0.17,-0.729,-0.17l-0.92,0l0,-0.678c0,-0.218,0.019,-0.41,0.056,-0.571c0.032,-0.141,0.103,-0.261,0.218,-0.367l0.002,-0.004l0.002,-0.002c0.082,-0.082,0.176,-0.126,0.29,-0.136c0.15,-0.015,0.339,-0.022,0.564,-0.022l0.56,0c0.291,0,0.539,-0.058,0.731,-0.168c0.154,-0.088,0.339,-0.281,0.339,-0.693C158.182,134.256,158.067,134.017,157.842,133.887z" />
    <path fill="#8C8C8C" d="M209.835,137.504c-0.089,-0.156,-0.282,-0.34,-0.693,-0.34c-0.339,0,-0.578,0.113,-0.707,0.34c-0.078,0.133,-0.127,0.293,-0.152,0.477l-0.021,-0.021c-0.216,-0.236,-0.466,-0.42,-0.747,-0.539c-0.277,-0.119,-0.563,-0.183,-0.849,-0.183l-0.709,0c-0.249,0,-0.466,0.015,-0.64,0.041c-0.182,0.026,-0.352,0.074,-0.51,0.14c-0.158,0.066,-0.313,0.15,-0.459,0.254c-0.139,0.097,-0.303,0.226,-0.486,0.377c-0.188,0.156,-0.342,0.302,-0.463,0.434c-0.127,0.141,-0.23,0.293,-0.306,0.455c-0.069,0.16,-0.122,0.337,-0.147,0.523c-0.026,0.178,-0.041,0.391,-0.041,0.631l0,2.386c0,0.24,0.015,0.451,0.041,0.631c0.025,0.188,0.078,0.361,0.147,0.521c0.074,0.164,0.179,0.318,0.306,0.457c0.119,0.129,0.274,0.274,0.463,0.433c0.186,0.153,0.35,0.28,0.486,0.379c0.146,0.103,0.299,0.188,0.459,0.254c0.158,0.065,0.329,0.112,0.51,0.14c0.174,0.026,0.389,0.039,0.64,0.039l0.709,0c0.298,0,0.591,-0.066,0.87,-0.199c0.244,-0.114,0.492,-0.291,0.73,-0.523l0,1.434c0,0.18,-0.025,0.334,-0.072,0.465c-0.043,0.119,-0.159,0.258,-0.344,0.406c-0.154,0.127,-0.309,0.217,-0.457,0.264c-0.15,0.049,-0.341,0.074,-0.563,0.074l-2.203,0c-0.293,0,-0.538,0.055,-0.732,0.166c-0.152,0.088,-0.34,0.282,-0.34,0.692c0,0.341,0.115,0.579,0.34,0.71c0.194,0.109,0.439,0.167,0.732,0.167l2.326,0c0.247,0,0.463,-0.015,0.638,-0.041c0.179,-0.026,0.351,-0.073,0.513,-0.14c0.153,-0.064,0.31,-0.15,0.455,-0.254c0.143,-0.101,0.305,-0.227,0.487,-0.379c0.185,-0.153,0.343,-0.299,0.463,-0.431c0.128,-0.141,0.229,-0.294,0.304,-0.456c0.071,-0.162,0.123,-0.338,0.148,-0.523c0.025,-0.182,0.041,-0.393,0.041,-0.631l0,-7.898C210.002,137.942,209.948,137.695,209.835,137.504zM208.266,141.964c0,0.188,-0.062,0.35,-0.188,0.49c-0.15,0.172,-0.394,0.403,-0.716,0.686l-0.002,0.003l-0.002,0.004c-0.139,0.13,-0.291,0.237,-0.453,0.325c-0.148,0.082,-0.325,0.121,-0.526,0.121L206.078,143.593c-0.222,0,-0.41,-0.021,-0.563,-0.072c-0.148,-0.049,-0.301,-0.137,-0.453,-0.264c-0.231,-0.186,-0.315,-0.322,-0.346,-0.404c-0.049,-0.131,-0.072,-0.285,-0.072,-0.465l0,-2.206c0,-0.18,0.023,-0.336,0.072,-0.467c0.029,-0.082,0.113,-0.217,0.346,-0.403c0.152,-0.127,0.305,-0.216,0.453,-0.265c0.153,-0.049,0.342,-0.072,0.563,-0.072l0.301,0c0.212,0,0.388,0.037,0.526,0.113c0.152,0.082,0.308,0.191,0.457,0.324c0.322,0.293,0.564,0.529,0.716,0.7c0.128,0.146,0.188,0.304,0.188,0.492L208.266,141.964z" />
    <path fill="#8C8C8C" d="M189.856,132.744c-0.914,0,-1.66,0.745,-1.66,1.66c0,0.916,0.746,1.66,1.66,1.66s1.66,-0.744,1.66,-1.66C191.516,133.489,190.77,132.744,189.856,132.744zM189.856,135.007c-0.332,0,-0.604,-0.27,-0.604,-0.603s0.271,-0.603,0.604,-0.603s0.604,0.27,0.604,0.603C190.46,134.737,190.188,135.007,189.856,135.007z" />
    <path fill="#8C8C8C" d="M200.542,143.012l-0.107,-3.419c-0.011,-0.178,-0.021,-0.338,-0.031,-0.489c-0.01,-0.162,-0.037,-0.322,-0.082,-0.476c-0.045,-0.158,-0.11,-0.309,-0.198,-0.453c-0.093,-0.146,-0.216,-0.289,-0.37,-0.42c-0.225,-0.192,-0.443,-0.334,-0.646,-0.416c-0.207,-0.084,-0.461,-0.127,-0.754,-0.127l-1.012,0c-0.259,0,-0.501,0.058,-0.716,0.164c-0.197,0.098,-0.39,0.203,-0.572,0.315l-0.003,0.002l-0.003,0.003l-0.837,0.555l0,-0.041c0,-0.291,-0.057,-0.539,-0.168,-0.733c-0.129,-0.226,-0.367,-0.339,-0.707,-0.339c-0.411,0,-0.604,0.185,-0.693,0.339c-0.109,0.194,-0.168,0.438,-0.168,0.733l0,6.099c0,0.295,0.059,0.539,0.168,0.734c0.09,0.153,0.282,0.338,0.693,0.338c0.34,0,0.578,-0.114,0.707,-0.338c0.111,-0.195,0.168,-0.439,0.168,-0.734L195.211,140.274l1.953,-1.215c0.04,-0.024,0.082,-0.048,0.121,-0.063c0.031,-0.016,0.07,-0.025,0.115,-0.031c0.049,-0.012,0.117,-0.016,0.195,-0.016l0.362,0c0.188,0,0.334,0.021,0.435,0.059c0.082,0.029,0.143,0.076,0.18,0.143c0.05,0.078,0.08,0.18,0.098,0.303c0.02,0.139,0.034,0.309,0.045,0.504l0.096,3.097c-0.457,0.297,-0.762,0.811,-0.762,1.394c0,0.917,0.746,1.661,1.66,1.661c0.916,0,1.66,-0.744,1.66,-1.661C201.368,143.837,201.035,143.299,200.542,143.012zM199.708,145.049c-0.334,0,-0.602,-0.271,-0.602,-0.604c0,-0.333,0.268,-0.604,0.602,-0.604c0.333,0,0.604,0.271,0.604,0.604C200.313,144.78,200.041,145.049,199.708,145.049z" />
    <path fill="#8C8C8C" d="M189.919,137.236l-1.193,0c-0.293,0,-0.539,0.059,-0.731,0.169c-0.226,0.129,-0.341,0.368,-0.341,0.708c0,0.412,0.186,0.604,0.341,0.691c0.192,0.113,0.438,0.168,0.731,0.168l0.545,0l0,5.362c0,0.293,0.055,0.539,0.168,0.73c0.127,0.227,0.365,0.341,0.707,0.341c0.41,0,0.604,-0.187,0.691,-0.341c0.111,-0.191,0.17,-0.438,0.17,-0.73L191.007,138.324c0,-0.386,-0.085,-0.656,-0.259,-0.83C190.576,137.322,190.303,137.236,189.919,137.236z" />
   </g>
  </g>
 </g>
 <g partID="62890">
  <g transform="translate(195.117,52.4107)">
   <g transform="matrix(0,1,-1,0,0,0)">
    <g id="schematic">
     <rect stroke-linecap="round" id="rect7" stroke-width="0.72" width="57.6" stroke="#000000" fill="none" y="7.57879" height="151.2" x="7.57014"/>
     <text text-anchor="middle" id="label" font-size="4.32" font-family="'Droid Sans'" fill="#000000" y="26.0814" x="36.3642">Raspberry PI</text>
     <text text-anchor="start" font-size="3.528" id="label0" font-family="'Droid Sans'" fill="#555555" y="145.664" x="9.72">GP14</text>
     <text text-anchor="start" id="text15" font-size="2.52" font-family="'Droid Sans'" fill="#555555" y="142.916" x="3.10949">19</text>
     <text text-anchor="start" font-size="3.528" id="label1" font-family="'Droid Sans'" fill="#555555" y="152.839" x="9.40719">GP15</text>
     <text text-anchor="start" id="text22" font-size="2.52" font-family="'Droid Sans'" fill="#555555" y="150.114" x="2.76187">20</text>
     <text text-anchor="middle" id="text83" font-size="3.528" font-family="'Droid Sans'" fill="#555555" y="12.5311" x="21.9123">SW CLK</text>
     <g transform="scale(0.9998883,1.0001117)">
      <text text-anchor="middle" font-size="2.51972" id="text51" stroke-width="0.072" font-family="'Droid Sans'" fill="#555555" y="5.70896" x="19.2529">41</text>
     </g>
     <text text-anchor="middle" id="text87" font-size="3.528" font-family="'Droid Sans'" fill="#555555" y="12.5655" x="36.2518">SW GND</text>
     <g transform="scale(0.9998883,1.0001117)">
      <text text-anchor="start" id="text53" font-size="2.51972" stroke-width="0.072" font-family="'Droid Sans'" fill="#555555" y="5.73474" x="31.6522">42</text>
     </g>
     <text text-anchor="end" id="text79" font-size="3.528" font-family="'Droid Sans'" fill="#555555" y="152.839" x="63.2161">GP16</text>
     <text text-anchor="start" font-size="2.52" id="text63" font-family="'Droid Sans'" fill="#555555" y="150.114" x="67.1622">21</text>
     <text text-anchor="end" id="text81" font-size="3.528" font-family="'Droid Sans'" fill="#555555" y="145.639" x="63.0921">GP17</text>
     <text text-anchor="start" font-size="2.52" id="text65" font-family="'Droid Sans'" fill="#555555" y="142.914" x="67.1844">22</text>
     <text text-anchor="start" id="text44" font-size="3.528" font-family="'Droid Sans'" fill="#555555" y="131.3" x="9.72">GP13</text>
     <text text-anchor="start" font-size="2.52" id="text46" font-family="'Droid Sans'" fill="#555555" y="128.552" x="3.10949">17</text>
     <text text-anchor="middle" id="text48" font-size="3.528" font-family="'Droid Sans'" fill="#555555" y="156.351" x="36.2766">GND</text>
     <text text-anchor="start" id="text60" font-size="3.528" font-family="'Droid Sans'" fill="#555555" y="116.9" x="9.72">GP11</text>
     <text text-anchor="start" font-size="2.52" id="text62" font-family="'Droid Sans'" fill="#555555" y="114.152" x="3.10949">15</text>
     <text text-anchor="start" id="text64" font-size="3.528" font-family="'Droid Sans'" fill="#555555" y="124.075" x="9.40719">GP12</text>
     <text text-anchor="start" font-size="2.52" id="text66" font-family="'Droid Sans'" fill="#555555" y="121.35" x="2.76187">16</text>
     <text text-anchor="start" font-size="3.528" id="text80" font-family="'Droid Sans'" fill="#555555" y="109.711" x="9.40719">GP10</text>
     <text text-anchor="start" id="text82" font-size="2.52" font-family="'Droid Sans'" fill="#555555" y="106.986" x="2.76187">14</text>
     <text text-anchor="start" id="text94" font-size="3.528" font-family="'Droid Sans'" fill="#555555" y="95.2748" x="9.40719">GP9</text>
     <text text-anchor="start" font-size="2.52" id="text96" font-family="'Droid Sans'" fill="#555555" y="92.5502" x="2.76187">12</text>
     <text text-anchor="start" id="text148" font-size="3.528" font-family="'Droid Sans'" fill="#555555" y="80.8999" x="9.72">GP7</text>
     <text text-anchor="start" font-size="2.52" id="text150" font-family="'Droid Sans'" fill="#555555" y="78.1519" x="3.10949">10</text>
     <text text-anchor="start" id="text152" font-size="3.528" font-family="'Droid Sans'" fill="#555555" y="88.0748" x="9.40719">GP8</text>
     <text text-anchor="start" font-size="2.52" id="text154" font-family="'Droid Sans'" fill="#555555" y="85.3502" x="2.76187">11</text>
     <text text-anchor="start" font-size="3.528" id="text168" font-family="'Droid Sans'" fill="#555555" y="73.7108" x="9.40719">GP6</text>
     <text text-anchor="start" id="text170" font-size="2.52" font-family="'Droid Sans'" fill="#555555" y="71.0091" x="4.15837">9</text>
     <text text-anchor="start" font-size="3.528" id="text180" font-family="'Droid Sans'" fill="#555555" y="52.1359" x="9.72">GP4</text>
     <text text-anchor="start" id="text182" font-size="2.52" font-family="'Droid Sans'" fill="#555555" y="49.4108" x="4.50598">6</text>
     <text text-anchor="start" font-size="3.528" id="text184" font-family="'Droid Sans'" fill="#555555" y="59.3108" x="9.40719">GP5</text>
     <text text-anchor="start" id="text186" font-size="2.52" font-family="'Droid Sans'" fill="#555555" y="56.6091" x="4.15837">7</text>
     <text text-anchor="start" id="text196" font-size="3.528" font-family="'Droid Sans'" fill="#555555" y="37.7719" x="9.72">GP2</text>
     <text text-anchor="start" font-size="2.52" id="text198" font-family="'Droid Sans'" fill="#555555" y="35.0468" x="4.50598">4</text>
     <text text-anchor="start" id="text200" font-size="3.528" font-family="'Droid Sans'" fill="#555555" y="44.9468" x="9.40719">GP3</text>
     <text text-anchor="start" font-size="2.52" id="text202" font-family="'Droid Sans'" fill="#555555" y="42.2451" x="4.15837">5</text>
     <text text-anchor="start" id="text214" font-size="2.52" font-family="'Droid Sans'" fill="#555555" y="162.395" x="23.6591">3,8,13,18</text>
     <text text-anchor="start" font-size="3.528" id="text220" font-family="'Droid Sans'" fill="#555555" y="23.3468" x="9.72">GP1</text>
     <text text-anchor="start" id="text222" font-size="2.52" font-family="'Droid Sans'" fill="#555555" y="20.6217" x="4.50598">2</text>
     <text text-anchor="start" id="text228" font-size="3.528" font-family="'Droid Sans'" fill="#555555" y="16.0857" x="9.40719">GP0</text>
     <text text-anchor="start" font-size="2.52" id="text230" font-family="'Droid Sans'" fill="#555555" y="13.384" x="4.15837">1</text>
     <text text-anchor="middle" font-size="3.528" id="text236" font-family="'Droid Sans'" fill="#555555" y="12.5655" x="50.6166">SW DIO</text>
     <g transform="scale(0.9998883,1.0001117)">
      <text text-anchor="start" font-size="2.51972" id="text238" stroke-width="0.072" font-family="'Droid Sans'" fill="#555555" y="5.73474" x="46.0153">43</text>
     </g>
     <text text-anchor="end" font-size="3.528" id="text248" font-family="'Droid Sans'" fill="#555555" y="131.24" x="63.0921">GP18</text>
     <text text-anchor="start" id="text250" font-size="2.52" font-family="'Droid Sans'" fill="#555555" y="128.516" x="67.1844">24</text>
     <text text-anchor="end" font-size="3.528" id="text260" font-family="'Droid Sans'" fill="#555555" y="124.04" x="63.2161">GP19</text>
     <text text-anchor="start" id="text262" font-size="2.52" font-family="'Droid Sans'" fill="#555555" y="121.316" x="67.1622">25</text>
     <text text-anchor="end" font-size="3.528" id="text264" font-family="'Droid Sans'" fill="#555555" y="116.84" x="63.0921">GP20</text>
     <text text-anchor="start" id="text266" font-size="2.52" font-family="'Droid Sans'" fill="#555555" y="114.116" x="67.1844">26</text>
     <text text-anchor="end" id="text276" font-size="3.528" font-family="'Droid Sans'" fill="#555555" y="109.642" x="63.2161">GP21</text>
     <text text-anchor="start" font-size="2.52" id="text278" font-family="'Droid Sans'" fill="#555555" y="106.917" x="67.1622">27</text>
     <text text-anchor="end" font-size="3.528" id="text292" font-family="'Droid Sans'" fill="#555555" y="95.2403" x="63.2161">GP22</text>
     <text text-anchor="start" id="text294" font-size="2.52" font-family="'Droid Sans'" fill="#555555" y="92.5157" x="67.1622">29</text>
     <text text-anchor="end" font-size="3.528" id="text296" font-family="'Droid Sans'" fill="#555555" y="88.0403" x="63.0921">RUN</text>
     <text text-anchor="start" id="text298" font-size="2.52" font-family="'Droid Sans'" fill="#555555" y="85.3157" x="67.1844">30</text>
     <text text-anchor="end" id="text308" font-size="3.528" font-family="'Droid Sans'" fill="#555555" y="80.8419" x="63.2161">GP26_A0</text>
     <text text-anchor="start" font-size="2.52" id="text310" font-family="'Droid Sans'" fill="#555555" y="78.1173" x="67.1622">31</text>
     <text text-anchor="end" id="text312" font-size="3.528" font-family="'Droid Sans'" fill="#555555" y="73.6419" x="63.0921">GP27_A1</text>
     <text text-anchor="start" font-size="2.52" id="text314" font-family="'Droid Sans'" fill="#555555" y="70.9173" x="67.1844">32</text>
     <text text-anchor="end" id="text324" font-size="3.528" font-family="'Droid Sans'" fill="#555555" y="66.4419" x="63.2161">AGND</text>
     <text text-anchor="start" font-size="2.52" id="text326" font-family="'Droid Sans'" fill="#555555" y="63.7173" x="67.1622">33</text>
     <text text-anchor="end" id="text328" font-size="3.528" font-family="'Droid Sans'" fill="#555555" y="59.2419" x="63.0921">GP28_A2</text>
     <text text-anchor="start" font-size="2.52" id="text330" font-family="'Droid Sans'" fill="#555555" y="56.5173" x="67.1844">34</text>
     <text text-anchor="end" font-size="3.528" id="text340" font-family="'Droid Sans'" fill="#555555" y="52.0434" x="63.2161">ADC_VREF</text>
     <text text-anchor="start" id="text342" font-size="2.52" font-family="'Droid Sans'" fill="#555555" y="49.3188" x="67.1622">35</text>
     <text text-anchor="end" font-size="3.528" id="text344" font-family="'Droid Sans'" fill="#555555" y="44.8434" x="63.0921">3V3</text>
     <text text-anchor="start" id="text346" font-size="2.52" font-family="'Droid Sans'" fill="#555555" y="42.1188" x="67.1844">36</text>
     <text text-anchor="end" font-size="3.528" id="text356" font-family="'Droid Sans'" fill="#555555" y="37.6403" x="63.2161">3V3_EN</text>
     <text text-anchor="start" id="text358" font-size="2.52" font-family="'Droid Sans'" fill="#555555" y="34.9157" x="67.1622">37</text>
     <text text-anchor="end" id="text372" font-size="3.528" font-family="'Droid Sans'" fill="#555555" y="23.2419" x="63.2161">VSS</text>
     <text text-anchor="start" font-size="2.52" id="text374" font-family="'Droid Sans'" fill="#555555" y="20.5173" x="67.1622">39</text>
     <text text-anchor="end" id="text376" font-size="3.528" font-family="'Droid Sans'" fill="#555555" y="16.0419" x="63.0921">VBUS</text>
     <text text-anchor="start" font-size="2.52" id="text378" font-family="'Droid Sans'" fill="#555555" y="13.3173" x="67.1844">40</text>
     <text text-anchor="middle" font-size="4.32" id="text388" font-family="'Droid Sans'" fill="#000000" y="33.2938" x="36.3642">Pico</text>
     <line stroke-linecap="round" id="connector0pin" stroke-width="0.72" stroke="#555555" fill="none" y1="14.8357" y2="14.8357" x2="7.2188" x1="0.365127"/>
     <g id="connector0terminal" stroke-width="0" width="0.72" fill="none" height="0.72" y="14.4657" x="0.0101433"/>
     <line stroke-linecap="round" id="connector1pin" stroke-width="0.72" stroke="#555555" fill="none" y1="22.0717" y2="22.0717" x2="7.2188" x1="0.365127"/>
     <g id="connector1terminal" stroke-width="0" width="0.72" fill="none" y="21.7217" height="0.72" x="0.0101433"/>
     <line stroke-linecap="round" id="connector2pin" stroke-width="0.72" stroke="#555555" fill="none" y1="165.955" y2="159.101" x2="36.36" x1="36.36"/>
     <g transform="rotate(-90)">
      <g id="connector2terminal" stroke-width="0" width="0.72" fill="none" y="36" height="0.72" x="-166.32"/>
     </g>
     <line stroke-linecap="round" id="connector3pin" stroke-width="0.72" stroke="#555555" fill="none" y1="36.4968" y2="36.4968" x2="7.2188" x1="0.365127"/>
     <g id="connector3terminal" stroke-width="0" width="0.72" fill="none" height="0.72" y="36.1468" x="0.0101433"/>
     <line stroke-linecap="round" id="connector4pin" stroke-width="0.72" stroke="#555555" fill="none" y1="43.6968" y2="43.6968" x2="7.2188" x1="0.365127"/>
     <g id="connector4terminal" stroke-width="0" width="0.72" fill="none" height="0.72" y="43.3268" x="0.0101433"/>
     <line stroke-linecap="round" id="connector5pin" stroke-width="0.72" stroke="#555555" fill="none" y1="50.8608" y2="50.8608" x2="7.2188" x1="0.365127"/>
     <g id="connector5terminal" stroke-width="0" width="0.72" fill="none" y="50.5108" height="0.72" x="0.0101433"/>
     <line stroke-linecap="round" id="connector6pin" stroke-width="0.72" stroke="#555555" fill="none" y1="58.0608" y2="58.0608" x2="7.2188" x1="0.365127"/>
     <g id="connector6terminal" stroke-width="0" width="0.72" fill="none" y="57.6908" height="0.72" x="0.0101433"/>
     <line stroke-linecap="round" id="connector7pin" stroke-width="0.72" stroke="#555555" fill="none" y1="165.955" y2="159.101" x2="36.36" x1="36.36"/>
     <g id="connector7terminal" stroke-width="0" width="0.72" fill="none" y="165.6" height="0.72" x="36"/>
     <line stroke-linecap="round" id="connector8pin" stroke-width="0.72" stroke="#555555" fill="none" y1="72.4608" y2="72.4608" x2="7.2188" x1="0.365127"/>
     <g id="connector8terminal" stroke-width="0" width="0.72" fill="none" y="72.0908" height="0.72" x="0.0101433"/>
     <line stroke-linecap="round" id="connector9pin" stroke-width="0.72" stroke="#555555" fill="none" y1="79.6248" y2="79.6248" x2="7.2188" x1="0.365127"/>
     <g id="connector9terminal" stroke-width="0" width="0.72" fill="none" height="0.72" y="79.2748" x="0.0101433"/>
     <line stroke-linecap="round" id="connector10pin" stroke-width="0.72" stroke="#555555" fill="none" y1="86.8248" y2="86.8248" x2="7.2188" x1="0.365127"/>
     <g id="connector10terminal" stroke-width="0" width="0.72" fill="none" height="0.72" y="86.4548" x="0.0101433"/>
     <line stroke-linecap="round" id="connector11pin" stroke-width="0.72" stroke="#555555" fill="none" y1="94.0248" y2="94.0248" x2="7.2188" x1="0.365127"/>
     <g id="connector11terminal" stroke-width="0" width="0.72" fill="none" height="0.72" y="93.6548" x="0.0101433"/>
     <line stroke-linecap="round" id="connector12pin" stroke-width="0.72" stroke="#555555" fill="none" y1="165.955" y2="159.101" x2="36.36" x1="36.36"/>
     <g id="connector12terminal" stroke-width="0" width="0.72" fill="none" y="165.6" height="0.72" x="36"/>
     <line stroke-linecap="round" id="connector13pin" stroke-width="0.72" stroke="#555555" fill="none" y1="108.461" y2="108.461" x2="7.2188" x1="0.365127"/>
     <g id="connector13terminal" stroke-width="0" width="0.72" fill="none" y="108.091" height="0.72" x="0.0101433"/>
     <line stroke-linecap="round" id="connector14pin" stroke-width="0.72" stroke="#555555" fill="none" y1="115.625" y2="115.625" x2="7.2188" x1="0.365127"/>
     <g id="connector14terminal" stroke-width="0" width="0.72" fill="none" height="0.72" y="115.275" x="0.0101433"/>
     <line stroke-linecap="round" id="connector15pin" stroke-width="0.72" stroke="#555555" fill="none" y1="122.825" y2="122.825" x2="7.2188" x1="0.365127"/>
     <g id="connector15terminal" stroke-width="0" width="0.72" fill="none" height="0.72" y="122.455" x="0.0101433"/>
     <line stroke-linecap="round" id="connector16pin" stroke-width="0.72" stroke="#555555" fill="none" y1="130.025" y2="130.025" x2="7.2188" x1="0.365127"/>
     <g id="connector16terminal" stroke-width="0" width="0.72" fill="none" height="0.72" y="129.675" x="0.0101433"/>
     <line stroke-linecap="round" id="connector17pin" stroke-width="0.72" stroke="#555555" fill="none" y1="165.955" y2="159.101" x2="36.36" x1="36.36"/>
     <g id="connector17terminal" stroke-width="0" width="0.72" fill="none" height="0.72" y="165.6" x="36"/>
     <line stroke-linecap="round" id="connector18pin" stroke-width="0.72" stroke="#555555" fill="none" y1="144.389" y2="144.389" x2="7.2188" x1="0.365127"/>
     <g id="connector18terminal" stroke-width="0" width="0.72" fill="none" y="144.039" height="0.72" x="0.0101433"/>
     <line stroke-linecap="round" id="connector19pin" stroke-width="0.72" stroke="#555555" fill="none" y1="151.589" y2="151.589" x2="7.2188" x1="0.365127"/>
     <g id="connector19terminal" stroke-width="0" width="0.72" fill="none" y="151.219" height="0.72" x="0.0101433"/>
     <line stroke-linecap="round" id="connector20pin" stroke-width="0.72" stroke="#555555" fill="none" y1="151.555" y2="151.555" x2="72.3334" x1="65.4934"/>
     <g id="connector20terminal" stroke-width="0" width="0.72" fill="none" height="0.72" y="151.195" x="71.9734"/>
     <line stroke-linecap="round" id="connector21pin" stroke-width="0.72" stroke="#555555" fill="none" y1="144.355" y2="144.355" x2="72.3334" x1="65.4934"/>
     <g id="connector21terminal" stroke-width="0" width="0.72" fill="none" height="0.72" y="144.067" x="71.9734"/>
     <line stroke-linecap="round" id="connector22pin" stroke-width="0.72" stroke="#555555" fill="none" y1="159.115" y2="165.955" x2="36.36" x1="36.36"/>
     <g id="connector22terminal" stroke-width="0" width="0.72" fill="none" y="165.6" height="0.72" x="36"/>
     <line stroke-linecap="round" id="connector23pin" stroke-width="0.72" stroke="#555555" fill="none" y1="129.956" y2="129.956" x2="72.3334" x1="65.4934"/>
     <g id="connector23terminal" stroke-width="0" width="0.72" fill="none" y="129.668" height="0.72" x="71.9734"/>
     <line stroke-linecap="round" id="connector24pin" stroke-width="0.72" stroke="#555555" fill="none" y1="122.756" y2="122.756" x2="72.3334" x1="65.4934"/>
     <g id="connector24terminal" stroke-width="0" width="0.72" fill="none" y="122.396" height="0.72" x="71.9734"/>
     <line stroke-linecap="round" id="connector25pin" stroke-width="0.72" stroke="#555555" fill="none" y1="115.556" y2="115.556" x2="72.3334" x1="65.4934"/>
     <g id="connector25terminal" stroke-width="0" width="0.72" fill="none" y="115.268" height="0.72" x="71.9734"/>
     <line stroke-linecap="round" id="connector26pin" stroke-width="0.72" stroke="#555555" fill="none" y1="108.358" y2="108.358" x2="72.3334" x1="65.4934"/>
     <g id="connector26terminal" stroke-width="0" width="0.72" fill="none" height="0.72" y="107.998" x="71.9734"/>
     <line stroke-linecap="round" id="connector27pin" stroke-width="0.72" stroke="#555555" fill="none" y1="159.115" y2="165.955" x2="36.36" x1="36.36"/>
     <g id="connector27terminal" stroke-width="0" width="0.72" fill="none" height="0.72" y="165.6" x="36"/>
     <line stroke-linecap="round" id="connector28pin" stroke-width="0.72" stroke="#555555" fill="none" y1="93.9564" y2="93.9564" x2="72.3334" x1="65.4934"/>
     <g id="connector28terminal" stroke-width="0" width="0.72" fill="none" y="93.5964" height="0.72" x="71.9734"/>
     <line stroke-linecap="round" id="connector29pin" stroke-width="0.72" stroke="#555555" fill="none" y1="86.7564" y2="86.7564" x2="72.3334" x1="65.4934"/>
     <g id="connector29terminal" stroke-width="0" width="0.72" fill="none" y="86.4684" height="0.72" x="71.9734"/>
     <line stroke-linecap="round" id="connector30pin" stroke-width="0.72" stroke="#555555" fill="none" y1="79.558" y2="79.558" x2="72.3334" x1="65.4934"/>
     <g id="connector30terminal" stroke-width="0" width="0.72" fill="none" height="0.72" y="79.198" x="71.9734"/>
     <line stroke-linecap="round" id="connector31pin" stroke-width="0.72" stroke="#555555" fill="none" y1="72.358" y2="72.358" x2="72.3334" x1="65.4934"/>
     <g id="connector31terminal" stroke-width="0" width="0.72" fill="none" height="0.72" y="72.07" x="71.9734"/>
     <line stroke-linecap="round" id="connector32pin" stroke-width="0.72" stroke="#555555" fill="none" y1="65.158" y2="65.158" x2="72.3334" x1="65.4934"/>
     <g id="connector32terminal" stroke-width="0" width="0.72" fill="none" height="0.72" y="64.798" x="71.9734"/>
     <line stroke-linecap="round" id="connector33pin" stroke-width="0.72" stroke="#555555" fill="none" y1="57.958" y2="57.958" x2="72.3334" x1="65.4934"/>
     <g id="connector33terminal" stroke-width="0" width="0.72" fill="none" height="0.72" y="57.67" x="71.9734"/>
     <line stroke-linecap="round" id="connector34pin" stroke-width="0.72" stroke="#555555" fill="none" y1="50.7595" y2="50.7595" x2="72.3334" x1="65.4934"/>
     <g id="connector34terminal" stroke-width="0" width="0.72" fill="none" y="50.3995" height="0.72" x="71.9734"/>
     <line stroke-linecap="round" id="connector35pin" stroke-width="0.72" stroke="#555555" fill="none" y1="43.5595" y2="43.5595" x2="72.3334" x1="65.4934"/>
     <g id="connector35terminal" stroke-width="0" width="0.72" fill="none" y="43.2715" height="0.72" x="71.9734"/>
     <line stroke-linecap="round" id="connector36pin" stroke-width="0.72" stroke="#555555" fill="none" y1="36.3564" y2="36.3564" x2="72.3334" x1="65.4934"/>
     <g id="connector36terminal" stroke-width="0" width="0.72" fill="none" y="35.9964" height="0.72" x="71.9734"/>
     <line stroke-linecap="round" id="connector37pin" stroke-width="0.72" stroke="#555555" fill="none" y1="165.955" y2="159.115" x2="36.36" x1="36.36"/>
     <g id="connector37terminal" stroke-width="0" width="0.72" fill="none" y="165.6" height="0.72" x="36"/>
     <line stroke-linecap="round" id="connector38pin" stroke-width="0.72" stroke="#555555" fill="none" y1="21.9579" y2="21.9579" x2="72.3334" x1="65.4934"/>
     <g id="connector38terminal" stroke-width="0" width="0.72" fill="none" height="0.72" y="21.5979" x="71.9734"/>
     <line stroke-linecap="round" id="connector39pin" stroke-width="0.72" stroke="#555555" fill="none" y1="14.758" y2="14.758" x2="72.3334" x1="65.4934"/>
     <g id="connector39terminal" stroke-width="0" width="0.72" fill="none" height="0.72" y="14.47" x="71.9734"/>
     <line stroke-linecap="round" id="connector40pin" stroke-width="0.72" stroke="#555555" fill="none" y1="0.714868" y2="7.55487" x2="21.9481" x1="21.9481"/>
     <g id="connector40terminal" stroke-width="0" width="0.72" fill="none" height="0.72" y="1.02318e-15" x="21.5881"/>
     <line stroke-linecap="round" id="connector41pin" stroke-width="0.72" stroke="#555555" fill="none" y1="0.714868" y2="7.55487" x2="36.3488" x1="36.3488"/>
     <g id="connector41terminal" stroke-width="0" width="0.72" fill="none" y="1.02318e-15" height="0.72" x="35.9888"/>
     <line stroke-linecap="round" id="connector42pin" stroke-width="0.72" stroke="#555555" fill="none" y1="0.714868" y2="7.55487" x2="50.7135" x1="50.7135"/>
     <g id="connector42terminal" stroke-width="0" width="0.72" fill="none" height="0.72" y="1.02318e-15" x="50.3535"/>
     <text text-anchor="start" font-size="2.52" id="text361" font-family="'Droid Sans'" fill="#555555" y="162.38" x="38.0591">23,28,38</text>
    </g>
   </g>
  </g>
 </g>
 <g partID="62980">
  <g transform="translate(173.377,21.2437)">
   <g transform="matrix(0,1,-1,0,0,0)">
    <g id="schematic">
     <g>
      <path d="M13.5,14.966L9.9,14.966c-0.193,0,-0.35,-0.156,-0.35,-0.35s0.156,-0.35,0.35,-0.35L13.5,14.266c0.193,0,0.35,0.156,0.35,0.35S13.694,14.966,13.5,14.966z"/>
     </g>
     <g>
      <path d="M9.9,14.966L6.3,14.966c-0.193,0,-0.35,-0.156,-0.35,-0.35s0.157,-0.35,0.35,-0.35l3.6,0c0.193,0,0.35,0.156,0.35,0.35S10.093,14.966,9.9,14.966z"/>
     </g>
     <g>
      <polygon fill="#FFFFFF" points="9.9,14.616,6.3,7.416,9.9,7.416,13.5,7.416"/>
      <path d="M9.9,15.398L5.734,7.066l8.333,0L9.9,15.398zM6.866,7.766L9.9,13.834l3.034,-6.068L6.866,7.766z"/>
     </g>
     <g>
      <path d="M9.9,14.841c-0.124,0,-0.225,-0.101,-0.225,-0.225l0,-7.2c0,-0.124,0.101,-0.225,0.225,-0.225s0.225,0.101,0.225,0.225l0,7.2C10.124,14.74,10.024,14.841,9.9,14.841z"/>
     </g>
     <g>
      <path d="M1.8,12.141c-0.058,0,-0.115,-0.021,-0.159,-0.065c-0.088,-0.088,-0.088,-0.23,0,-0.318l2.34,-2.341c0.088,-0.088,0.23,-0.088,0.318,0s0.088,0.23,0,0.318l-2.34,2.341C1.915,12.12,1.858,12.141,1.8,12.141z"/>
     </g>
     <g>
      <path d="M2.16,15.381c-0.058,0,-0.115,-0.021,-0.159,-0.065c-0.088,-0.088,-0.088,-0.23,0,-0.318l2.34,-2.34c0.088,-0.088,0.23,-0.088,0.318,0s0.088,0.23,0,0.318l-2.34,2.34C2.276,15.359,2.218,15.381,2.16,15.381z"/>
     </g>
     <g id="connector0pin">
      <path fill="#787878" d="M9.9,22.166c-0.193,0,-0.35,-0.156,-0.35,-0.35l0,-7.2c0,-0.193,0.156,-0.35,0.35,-0.35s0.35,0.156,0.35,0.35l0,7.2C10.249,22.01,10.093,22.166,9.9,22.166z"/>
     </g>
     <g id="connector0terminal">
      <rect width="0.001" fill="none" y="21.816" height="0.001" x="9.9"/>
     </g>
     <g transform="matrix(1, 0, 0, 1, 3.429, 6.4262)">
      <g>
       <g transform="rotate(270)">
        <g>
         <g enable-background="new    ">
          <path fill="#787878" d="M-11.647,5.54l-0.891,0L-12.538,5.388l0.342,-0.372c0.049,-0.053,0.093,-0.101,0.131,-0.145s0.071,-0.086,0.099,-0.128c0.026,-0.042,0.047,-0.084,0.062,-0.125c0.015,-0.043,0.021,-0.088,0.021,-0.138c0,-0.038,-0.005,-0.072,-0.017,-0.102s-0.027,-0.054,-0.047,-0.075c-0.021,-0.02,-0.045,-0.035,-0.073,-0.046s-0.06,-0.016,-0.094,-0.016c-0.062,0,-0.118,0.013,-0.167,0.038c-0.051,0.024,-0.098,0.057,-0.143,0.096l-0.1,-0.116c0.025,-0.023,0.055,-0.046,0.084,-0.065c0.029,-0.021,0.063,-0.039,0.097,-0.054s0.071,-0.026,0.109,-0.036c0.038,-0.008,0.079,-0.013,0.121,-0.013c0.063,0,0.119,0.009,0.169,0.026c0.051,0.018,0.094,0.043,0.129,0.076c0.035,0.032,0.063,0.072,0.082,0.119c0.019,0.048,0.028,0.101,0.028,0.16c0,0.056,-0.009,0.108,-0.026,0.158c-0.017,0.05,-0.041,0.1,-0.07,0.148c-0.031,0.048,-0.066,0.097,-0.109,0.146c-0.041,0.049,-0.087,0.1,-0.136,0.152L-12.32,5.37l0,0.008l0.673,0L-11.647,5.54z"/>
         </g>
        </g>
       </g>
      </g>
     </g>
     <g id="connector1pin">
      <path fill="#787878" d="M9.9,7.766c-0.193,0,-0.35,-0.157,-0.35,-0.35l0,-7.2c0,-0.193,0.156,-0.35,0.35,-0.35s0.35,0.157,0.35,0.35l0,7.2C10.249,7.609,10.093,7.766,9.9,7.766z"/>
     </g>
     <g id="connector1terminal">
      <polygon fill="none" points="9.9,0.216,9.901,0.216,9.901,0.216"/>
     </g>
     <g transform="matrix(1, 0, 0, 1, 3.429, 1.3462)">
      <g>
       <g transform="rotate(270)">
        <g>
         <g enable-background="new    ">
          <path fill="#787878" d="M-2.616,5.54l-0.172,0L-2.788,4.648c0,-0.028,0,-0.058,0,-0.09s0.001,-0.063,0.002,-0.095c0.001,-0.032,0.002,-0.063,0.003,-0.092c0.001,-0.028,0.002,-0.054,0.002,-0.076c-0.011,0.012,-0.021,0.021,-0.029,0.03s-0.017,0.017,-0.026,0.024s-0.018,0.016,-0.028,0.025c-0.01,0.008,-0.021,0.019,-0.035,0.03l-0.145,0.118l-0.094,-0.12l0.374,-0.292l0.146,0L-2.618,5.54z"/>
         </g>
        </g>
       </g>
      </g>
     </g>
     <g>
      <path d="M0.18,13.536l1.08,-2.521l1.44,1.438L0.18,13.536z"/>
     </g>
     <g>
      <path d="M0.54,16.776l1.08,-2.521l1.438,1.438L0.54,16.776z"/>
     </g>
    </g>
   </g>
  </g>
 </g>
 <g partID="63250">
  <g transform="translate(115.211,28.048)">
   <g id="schematic" >
    <line stroke-linecap="round" stroke-width="0.432002" stroke="#000000" y1="3.096" y2="0.216" class="other" x2="8.63003"  x1="7.55002"/>
    <line stroke-linecap="round" stroke-width="0.432002" stroke="#000000" y1="0.216" y2="5.976" class="other" x2="10.43"  x1="8.63003"/>
    <line stroke-linecap="round" stroke-width="0.432002" stroke="#000000" y1="5.976" y2="0.216" class="other" x2="12.23"  x1="10.43"/>
    <line stroke-linecap="round" stroke-width="0.432002" stroke="#000000" y1="0.216" y2="5.976" class="other" x2="14.03"  x1="12.23"/>
    <line stroke-linecap="round" stroke-width="0.432002" stroke="#000000" y1="5.976" y2="0.216" class="other" x2="15.8301"  x1="14.03"/>
    <line stroke-linecap="round" stroke-width="0.432002" stroke="#000000" y1="0.216" y2="5.976" class="other" x2="17.6301"  x1="15.8301"/>
    <line stroke-linecap="round" stroke-width="0.432002" stroke="#000000" y1="5.976" y2="0.216" class="other" x2="19.4301"  x1="17.6301"/>
    <line stroke-linecap="round" stroke-width="0.432002" stroke="#000000" y1="0.216" y2="5.976" class="other" x2="21.2301"  x1="19.4301"/>
    <line stroke-linecap="round" stroke-width="0.432002" stroke="#000000" y1="5.976" y2="3.096" class="other" x2="21.9501"  x1="21.2301"/>
    <line stroke-linecap="round" id="connector1pin" stroke-width="0.700001" stroke="#787878" y1="3.096" y2="3.096" class="pin" connectorname="2" x2="21.9501"  x1="29.1502"/>
    <g id="connector1terminal" stroke-width="0" width="0.000283466" stroke="none" fill="none" y="3.096" height="0.000283465" class="terminal" x="29.1502" />
    <text text-anchor="middle" stroke-width="0" font-size="2.50001" font-family="'Droid Sans'" stroke="none" fill="#8c8c8c" y="2.046" class="text" x="25.5501" >2</text>
    <line stroke-linecap="round" id="connector0pin" stroke-width="0.700001" stroke="#787878" y1="3.096" y2="3.096" class="pin" connectorname="1" x2="7.55002"  x1="0.350001"/>
    <g id="connector0terminal" stroke-width="0" width="0.000283466" stroke="none" fill="none" y="3.096" height="0.000283465" class="terminal" x="0.350001" />
    <text text-anchor="middle" stroke-width="0" font-size="2.50001" font-family="'Droid Sans'" stroke="none" fill="#8c8c8c" y="2.046" class="text" x="3.95001" >1</text>
   </g>
  </g>
 </g>
 <g partID="63700">
  <g transform="translate(15.121,63.1937)">
   <g transform="matrix(0,1,-1,0,0,0)">
    <g id="schematic">
     <path stroke-width="0.9" stroke="#000000" fill="#FFFFFF" d="M29.15,0.36c3.977,0,7.2,3.223,7.201,7.199c0.001,3.976,-3.223,7.2,-7.199,7.201c0,0,-0.001,0,-0.002,0l-14.4,0c-3.977,0.001,-7.2,-3.223,-7.201,-7.199c0,-3.977,3.223,-7.2,7.199,-7.201c0.001,0,0.001,0,0.002,0L29.15,0.36z"/>
     <line stroke-linecap="round" stroke-width="0.5" stroke="#000000" fill="none" y1="0.36" y2="1.8" x2="17.63" x1="17.63"/>
     <path stroke-width="0.5" stroke="#000000" fill="none" d="M17.63,1.8c0,0.795,0.646,1.44,1.44,1.44"/>
     <line stroke-linecap="round" stroke-width="0.5" stroke="#000000" fill="none" y1="3.24" y2="3.24" x2="25.55" x1="19.07"/>
     <path stroke-width="0.5" stroke="#000000" fill="none" d="M25.55,3.24c0.597,0,1.081,0.483,1.081,1.08c0,0.596,-0.483,1.08,-1.08,1.08c0,0,0,0,-0.001,0"/>
     <line stroke-linecap="round" stroke-width="0.5" stroke="#000000" fill="none" y1="5.4" y2="5.4" x2="25.55" x1="18.35"/>
     <path stroke-width="0.5" stroke="#000000" fill="none" d="M18.35,7.56c-0.597,0,-1.08,-0.483,-1.08,-1.08s0.483,-1.08,1.08,-1.08l0,0"/>
     <line stroke-linecap="round" stroke-width="0.5" stroke="#000000" fill="none" y1="7.56" y2="7.56" x2="25.55" x1="18.35"/>
     <path stroke-width="0.5" stroke="#000000" fill="none" d="M25.55,7.56c0.597,0,1.081,0.483,1.081,1.079c0.001,0.597,-0.482,1.081,-1.079,1.081c-0.001,0,-0.001,0,-0.002,0"/>
     <line stroke-linecap="round" stroke-width="0.5" stroke="#000000" fill="none" y1="9.72" y2="9.72" x2="25.55" x1="18.35"/>
     <path stroke-width="0.5" stroke="#000000" fill="none" d="M18.35,11.88c-0.597,0,-1.08,-0.484,-1.08,-1.08c0,-0.597,0.483,-1.08,1.08,-1.08l0,0"/>
     <line stroke-linecap="round" stroke-width="0.5" stroke="#000000" fill="none" y1="11.88" y2="11.88" x2="24.83" x1="18.35"/>
     <path stroke-width="0.5" stroke="#000000" fill="none" d="M26.27,13.32c0,-0.795,-0.645,-1.439,-1.44,-1.439l0,0"/>
     <line stroke-linecap="round" stroke-width="0.5" stroke="#000000" fill="none" y1="13.32" y2="14.76" x2="26.27" x1="26.27"/>
     <line stroke-linecap="round" id="connector0pin" stroke-width="0.75" stroke="#787878" fill="none" y1="7.56" y2="7.56" x2="7.55" x1="0.35"/>
     <g id="connector0terminal" width="0" fill="none" y="7.56" height="0" x="0.35"/>
     <g transform="matrix(1, 0, 0, 1, 3.2615, 6.5103)">
      <text font-size="2.5" font-family="'DroidSans'" fill="#8C8C8C">1</text>
     </g>
     <line stroke-linecap="round" id="connector1pin" stroke-width="0.75" stroke="#787878" fill="none" y1="7.56" y2="7.56" x2="36.35" x1="43.551"/>
     <g id="connector1terminal" width="0" fill="none" y="7.56" height="0" x="43.551"/>
     <g transform="matrix(1, 0, 0, 1, 39.2615, 6.5103)">
      <text font-size="2.5" font-family="'DroidSans'" fill="#8C8C8C">2</text>
     </g>
    </g>
   </g>
  </g>
 </g>
 <g partID="63050">
  <line stroke-linecap="round" stroke-width="0.699998" stroke="#404040" y1="52.7809" y2="31.1442" x2="173.161" x1="180.292"/>
 </g>
 <g partID="63370">
  <line stroke-linecap="round" stroke-width="0.699998" stroke="#404040" y1="31.1442" y2="31.1442" x2="151.561" x1="144.361"/>
 </g>
 <g partID="63440">
  <line stroke-linecap="round" stroke-width="0.699998" stroke="#404040" y1="88.7707" y2="31.1442" x2="115.561" x1="29.1574"/>
 </g>
 <g partID="63750">
  <line stroke-linecap="round" stroke-width="0.699998" stroke="#404040" y1="67.1437" y2="124.744" x2="115.559" x1="7.561"/>
 </g>
 <g partID="63820">
  <line stroke-linecap="round" stroke-width="0.699998" stroke="#404040" y1="103.144" y2="124.744" x2="151.486" x1="7.561"/>
 </g>
 <g id="partLabel" partID="62890">
  <g transform="translate(148.307,0)">
   <g font-style="normal" font-weight="normal" font-size="5" id="schematicLabel" font-family="'DroidSans'" stroke="none" fill="#000000" fill-opacity="1">
    <text y="3.75" x="0">Mod1</text>
   </g>
  </g>
 </g>
 <g id="partLabel" partID="62980">
  <g transform="translate(169.202,5.86816)">
   <g font-style="normal" font-weight="normal" font-size="5" id="schematicLabel" font-family="'DroidSans'" stroke="none" fill="#000000" fill-opacity="1">
    <text y="3.75" x="0">LED1</text>
    <text y="8.75" x="0">Red (633nm)</text>
   </g>
  </g>
 </g>
 <g id="partLabel" partID="63250">
  <g transform="translate(144.711,16.848)">
   <g font-style="normal" font-weight="normal" font-size="5" id="schematicLabel" font-family="'DroidSans'" stroke="none" fill="#000000" fill-opacity="1">
    <text y="3.75" x="0">R1</text>
    <text y="8.75" x="0">220&#x3a9;</text>
   </g>
  </g>
 </g>
 <g id="partLabel" partID="63700">
  <g transform="translate(29.5105,71.9832)">
   <g font-style="normal" font-weight="normal" font-size="5" id="schematicLabel" font-family="'DroidSans'" stroke="none" fill="#000000" fill-opacity="1">
    <text y="3.75" x="0">R2</text>
   </g>
  </g>
 </g>
</svg>
